<svg viewBox="0 0 240 240" xmlns="http://www.w3.org/2000/svg">
  <!-- Outer red ring (annulus) — even-odd fill rule cuts inner disc -->
  <path d="M 120 5 A 115 115 0 1 0 120 235 A 115 115 0 1 0 120 5 Z M 120 27 A 93 93 0 1 1 120 213 A 93 93 0 1 1 120 27 Z" fill="#c41e3a" fill-rule="evenodd"/>

  <!-- Inner cream/parchment disc -->
  <circle cx="120" cy="120" r="93" fill="#ede2c8"/>

  <!-- Two stylized powder lines (horizontal, slightly tapered) -->
  <rect x="60" y="113" width="118" height="10" rx="3" fill="#1a1a1a"/>
  <rect x="60" y="136" width="118" height="10" rx="3" fill="#1a1a1a"/>

  <!-- Rolled note / straw at angle (top-right) -->
  <path d="M 165 100 L 196 60 L 209 68 L 178 109 Z" fill="#1a1a1a"/>

  <!-- Red diagonal slash (top-left to bottom-right, on top of everything) -->
  <path d="M 35 200 L 56 221 L 220 56 L 199 35 Z" fill="#c41e3a"/>
</svg>
